<svg width="100" height="28" viewBox="0 0 100 28" fill="none" xmlns="http://www.w3.org/2000/svg">
    <g clip-path="url(#clip0_2431_40984)">
        <path d="M82.8349 0.67099C82.607 0.67099 82.3843 0.738562 82.1948 0.865162C82.0053 0.991761 81.8576 1.1717 81.7704 1.38223C81.6832 1.59276 81.6604 1.82441 81.7049 2.04791C81.7493 2.2714 81.8591 2.4767 82.0202 2.63783C82.1813 2.79896 82.3866 2.90869 82.6101 2.95314C82.8336 2.9976 83.0653 2.97478 83.2758 2.88758C83.4863 2.80038 83.6663 2.6527 83.7929 2.46323C83.9195 2.27376 83.9871 2.05101 83.9871 1.82314C83.9871 1.51757 83.8657 1.22451 83.6496 1.00845C83.4335 0.792376 83.1405 0.67099 82.8349 0.67099Z"
              fill="#F93576"/>
        <path d="M5.66316 8.58259C4.30604 8.89414 3.06313 9.57915 2.07498 10.5602C1.08683 11.5412 0.392845 12.7791 0.0714862 14.134L0.0246582 14.3342H2.00126L2.03637 14.2211C2.30799 13.352 2.78822 12.5625 3.43515 11.9217C4.08208 11.2809 4.87601 10.8082 5.74768 10.5449L5.86211 10.5098V8.53708L5.66316 8.58259Z"
              fill="#FFA310"/>
        <path d="M96.0039 15.1196L94.1119 14.6567C92.7374 14.3251 92.0391 13.6398 92.0391 12.6229C92.0391 11.2444 93.4266 10.4213 94.7699 10.4213C96.3303 10.4213 97.4278 11.3147 97.5137 12.645L97.5241 12.7971H99.446V12.6294C99.3498 10.2457 97.433 8.58255 94.7881 8.58255C92.4916 8.58255 90.1171 10.1001 90.1171 12.6437C90.1171 14.5799 91.2679 15.8127 93.6385 16.4148L95.5111 16.8777C97.2081 17.2614 98.0845 18.1859 97.9818 19.4785C97.8219 20.511 96.9675 21.6151 95.0429 21.6151C94.2211 21.6271 93.4232 21.338 92.7998 20.8023C92.3161 20.3966 92.0039 19.8228 91.9259 19.1963L91.9116 19.0507H89.9871L89.9962 19.2197C90.1067 21.2809 92.0234 23.4135 95.0429 23.4135C96.3836 23.4135 97.5514 23.0299 98.4239 22.3056C99.2278 21.6357 99.744 20.6829 99.8661 19.6437C100.228 16.8101 97.9688 15.619 96.0091 15.1183"
              fill="#FBFCF5"/>
        <path d="M30.1365 10.8544L29.6697 10.4175C28.6003 9.4152 27.2613 8.74751 25.8173 8.49657C24.3733 8.24563 22.8875 8.42239 21.5427 9.0051C20.1979 9.5878 19.0529 10.551 18.2486 11.7762C17.4442 13.0013 17.0156 14.4349 17.0156 15.9005C17.0156 17.3662 17.4442 18.7998 18.2486 20.0249C19.0529 21.2501 20.1979 22.2133 21.5427 22.796C22.8875 23.3787 24.3733 23.5555 25.8173 23.3045C27.2613 23.0536 28.6003 22.3859 29.6697 21.3836L30.1365 20.9467V23.2042H32.0533V8.59561H30.1365V10.8544ZM30.1365 15.8999C30.1365 17.0058 29.8086 18.0869 29.1941 19.0065C28.5797 19.926 27.7064 20.6427 26.6847 21.0659C25.6629 21.4892 24.5386 21.5999 23.454 21.3841C22.3693 21.1684 21.3729 20.6358 20.5909 19.8538C19.8089 19.0718 19.2764 18.0755 19.0606 16.9908C18.8448 15.9061 18.9556 14.7818 19.3788 13.7601C19.802 12.7383 20.5187 11.865 21.4383 11.2506C22.3578 10.6362 23.4389 10.3082 24.5448 10.3082C26.0269 10.3113 27.4474 10.9014 28.4953 11.9494C29.5433 12.9974 30.1334 14.4178 30.1365 15.8999Z"
              fill="#FBFCF5"/>
        <path d="M54.0195 10.8544L53.5527 10.4175C52.4834 9.4152 51.1443 8.74751 49.7003 8.49657C48.2564 8.24563 46.7705 8.42239 45.4258 9.0051C44.081 9.5878 42.9359 10.551 42.1316 11.7762C41.3272 13.0013 40.8987 14.4349 40.8987 15.9005C40.8987 17.3662 41.3272 18.7998 42.1316 20.0249C42.9359 21.2501 44.081 22.2133 45.4258 22.796C46.7705 23.3787 48.2564 23.5555 49.7003 23.3045C51.1443 23.0536 52.4834 22.3859 53.5527 21.3836L54.0195 20.9467V23.2042H55.9376V8.59561H54.0195V10.8544ZM54.0195 15.8999C54.0195 17.0058 53.6916 18.0869 53.0772 19.0065C52.4628 19.926 51.5895 20.6427 50.5677 21.0659C49.546 21.4892 48.4217 21.5999 47.337 21.3841C46.2523 21.1684 45.256 20.6358 44.474 19.8538C43.692 19.0718 43.1594 18.0755 42.9437 16.9908C42.7279 15.9061 42.8386 14.7818 43.2618 13.7601C43.6851 12.7383 44.4018 11.865 45.3213 11.2506C46.2409 10.6362 47.3219 10.3082 48.4279 10.3082C49.9099 10.3113 51.3304 10.9014 52.3784 11.9494C53.4263 12.9974 54.0165 14.4178 54.0195 15.8999Z"
              fill="#FBFCF5"/>
        <path d="M60.6073 10.1054L60.1665 10.4266V8.59561H58.2484V23.2042H60.1665V14.7296C60.1653 13.7935 60.5097 12.8898 61.1336 12.192C61.7575 11.4941 62.6171 11.0512 63.5475 10.948L63.6919 10.9324V9.01174L63.5176 9.02604C62.4658 9.10914 61.4578 9.48281 60.606 10.1054"
              fill="#FBFCF5"/>
        <path d="M77.4474 10.8544L76.9831 10.4175C75.9138 9.4152 74.5747 8.74751 73.1308 8.49657C71.6868 8.24563 70.201 8.42239 68.8562 9.0051C67.5114 9.5878 66.3664 10.551 65.562 11.7762C64.7577 13.0013 64.3291 14.4349 64.3291 15.9005C64.3291 17.3662 64.7577 18.7998 65.562 20.0249C66.3664 21.2501 67.5114 22.2133 68.8562 22.796C70.201 23.3787 71.6868 23.5555 73.1308 23.3045C74.5747 23.0536 75.9138 22.3859 76.9831 21.3836L77.45 20.9467V23.2042H79.3667V8.59561H77.45L77.4474 10.8544ZM77.4474 15.8999C77.4474 17.0058 77.1194 18.0869 76.505 19.0065C75.8906 19.926 75.0173 20.6427 73.9955 21.0659C72.9738 21.4892 71.8495 21.5999 70.7648 21.3841C69.6801 21.1684 68.6838 20.6358 67.9018 19.8538C67.1198 19.0718 66.5872 18.0755 66.3715 16.9908C66.1557 15.9061 66.2665 14.7818 66.6897 13.7601C67.1129 12.7383 67.8296 11.865 68.7491 11.2506C69.6687 10.6362 70.7498 10.3082 71.8557 10.3082C73.3377 10.3113 74.7582 10.9014 75.8062 11.9494C76.8541 12.9974 77.4443 14.4178 77.4474 15.8999Z"
              fill="#FBFCF5"/>
        <path d="M83.7868 4.63324H81.87V23.2041H83.7868V4.63324Z" fill="#FBFCF5"/>
        <path d="M88.2094 0.67099H86.2926V23.2041H88.2094V0.67099Z" fill="#FBFCF5"/>
        <path d="M36.2809 4.63324H34.3641V17.6931C34.3702 19.1306 34.9148 20.5137 35.8905 21.5695C36.8661 22.6253 38.202 23.2772 39.6346 23.3966L39.8089 23.4109V21.4902L39.6645 21.4746C38.734 21.3717 37.8743 20.9288 37.2503 20.2309C36.6263 19.533 36.282 18.6292 36.2835 17.6931V10.5097H39.8271V8.59293H36.2809V4.63324Z"
              fill="#FBFCF5"/>
        <path d="M12.9714 10.8556L12.5046 10.4174C11.5454 9.5168 10.3665 8.88406 9.08583 8.58253L8.88816 8.53571V10.511L9.0026 10.5461C9.78921 10.7882 10.5127 11.201 11.1214 11.755C11.73 12.309 12.2089 12.9905 12.5238 13.7509C12.8387 14.5113 12.9819 15.3318 12.9431 16.1539C12.9043 16.9761 12.6845 17.7795 12.2994 18.5068C11.9142 19.2342 11.3733 19.8676 10.7152 20.3618C10.057 20.856 9.2979 21.1988 8.49198 21.3658C7.68607 21.5327 6.85324 21.5197 6.05293 21.3277C5.25261 21.1357 4.50455 20.7693 3.86215 20.2548C2.97867 19.5366 2.33166 18.5693 2.00521 17.4785L1.9714 17.3628H0L0.0442088 17.5591C0.402974 19.1232 1.24844 20.5332 2.45904 21.5864C3.86086 22.8028 5.66396 23.456 7.51955 23.4197C9.37514 23.3834 11.1513 22.6602 12.5046 21.3901L12.9714 20.9531V23.2106H14.8895V4.63324H12.9714V10.8556Z"
              fill="#FBFCF5"/>
    </g>
    <defs>
        <clipPath id="clip0_2431_40984">
            <rect width="100" height="26.658" fill="white" transform="translate(0 0.67099)"/>
        </clipPath>
    </defs>
</svg>
